PathFileType  4	(X/Y/Z) C:\Inversekin\DARPA\DARPA11\Files_W_HJCs\
DataRate	CameraRate	NumFrames	NumMarkers	Units	OrigDataRate	OrigDataStartFrame	OrigNumFrames
  100.0		  100.0		    8		     41		 mm	  100.0	      179	    238
Frame#	Time	R.Shoulder			L.Shoulder			R.Clavicle			L.Clavicle			R.Biceps			R.Elbow			R.Forearm			R.Wrist			L.Biceps			L.Elbow			L.Forearm			L.Wrist			R.ASIS			L.ASIS			R.PSIS			S2			L.PSIS			R.TH1			R.TH2			R.TH3			R.Knee			R.SH1			R.SH2			R.SH3			R.SH4			R.Ankle			R.Heel			R.MT5			R.Toe			L.TH1			L.TH2			L.TH3			L.TH4			L.Knee			L.SH1			L.SH2			L.SH3			L.Ankle			L.Heel			L.MT5			L.Toe			
		X1	Y1	Z1	X2	Y2	Z2	X3	Y3	Z3	X4	Y4	Z4	X5	Y5	Z5	X6	Y6	Z6	X7	Y7	Z7	X8	Y8	Z8	X9	Y9	Z9	X10	Y10	Z10	X11	Y11	Z11	X12	Y12	Z12	X13	Y13	Z13	X14	Y14	Z14	X15	Y15	Z15	X16	Y16	Z16	X17	Y17	Z17	X18	Y18	Z18	X19	Y19	Z19	X20	Y20	Z20	X21	Y21	Z21	X22	Y22	Z22	X23	Y23	Z23	X24	Y24	Z24	X25	Y25	Z25	X26	Y26	Z26	X27	Y27	Z27	X28	Y28	Z28	X29	Y29	Z29	X30	Y30	Z30	X31	Y31	Z31	X32	Y32	Z32	X33	Y33	Z33	X34	Y34	Z34	X35	Y35	Z35	X36	Y36	Z36	X37	Y37	Z37	X38	Y38	Z38	X39	Y39	Z39	X40	Y40	Z40	X41	Y41	Z41	

179	1.78000	1595.655	1529.921	-57.942	1579.911	1549.897	-399.740	1649.797	1494.093	-206.891	1648.551	1496.375	-257.822	1640.099	1270.960	17.108	1597.528	1179.114	53.341	1703.300	1072.048	60.342	1767.111	966.380	62.752	1570.270	1327.158	-494.168	1536.557	1207.900	-522.001	1612.353	1088.149	-544.857	1662.530	984.468	-545.822	1687.204	1025.833	-118.224	1663.349	1035.655	-369.517	1469.900	1027.041	-183.904	1455.450	1001.182	-226.505	1461.005	1022.489	-275.448	1664.262	782.396	-62.635	1556.591	767.681	-44.840	1556.696	643.858	-84.559	1602.127	517.744	-117.789	1607.129	419.271	-117.689	1588.358	307.185	-119.366	1523.234	426.550	-107.750	1503.756	308.083	-115.722	1523.400	107.622	-155.088	1440.727	37.219	-205.184	1630.974	33.027	-119.321	1740.405	54.005	-217.892	1754.359	860.291	-409.414	1805.289	739.755	-401.732	1665.772	831.225	-462.561	1702.341	700.775	-442.833	1769.080	572.170	-412.254	1758.491	456.501	-400.796	1679.052	511.205	-411.851	1616.697	414.303	-396.208	1565.981	204.567	-364.866	1462.385	176.767	-305.260	1617.511	86.566	-405.963	1727.848	59.806	-325.928
180	1.79000	1608.323	1529.836	-58.147	1591.545	1549.410	-399.871	1662.015	1493.781	-207.236	1660.630	1496.064	-258.048	1654.049	1271.460	17.584	1612.269	1179.562	54.585	1720.229	1074.399	60.715	1786.371	970.152	62.436	1579.071	1326.959	-494.638	1544.082	1208.188	-522.381	1618.668	1087.905	-546.266	1668.224	983.891	-548.191	1698.125	1024.691	-117.985	1674.912	1035.739	-369.114	1481.009	1026.316	-184.860	1466.172	1000.766	-227.332	1472.058	1022.025	-276.508	1672.440	781.764	-63.287	1564.881	767.728	-45.380	1562.554	644.490	-84.348	1605.343	517.545	-117.423	1609.356	419.071	-117.421	1589.803	307.192	-119.214	1525.647	426.856	-107.429	1505.193	308.778	-115.500	1523.742	107.822	-155.203	1440.870	37.484	-205.216	1631.031	33.012	-119.327	1740.525	53.714	-217.882	1767.211	862.074	-407.107	1819.682	742.352	-399.556	1680.074	832.647	-462.151	1717.788	702.391	-442.423	1784.845	574.092	-410.776	1779.540	457.266	-399.725	1697.261	507.820	-411.142	1640.601	407.265	-395.981	1601.190	194.726	-365.774	1499.290	159.804	-305.700	1659.721	80.625	-408.053	1772.207	60.568	-328.760
181	1.80000	1621.206	1529.657	-58.337	1602.677	1548.623	-399.987	1674.331	1493.323	-207.544	1672.301	1495.424	-258.611	1668.223	1271.878	17.972	1627.356	1179.738	55.743	1737.132	1076.220	60.922	1804.870	973.353	61.958	1587.615	1326.610	-495.090	1551.198	1208.173	-522.798	1625.345	1087.650	-547.643	1674.294	983.399	-550.154	1709.324	1023.682	-117.577	1686.264	1035.553	-368.734	1491.810	1025.611	-185.961	1477.561	999.765	-228.542	1483.438	1021.195	-277.490	1681.663	781.553	-64.959	1570.173	769.704	-43.465	1568.033	645.199	-84.215	1608.720	517.376	-117.126	1611.757	419.072	-117.056	1591.151	307.291	-119.002	1527.784	427.390	-107.135	1506.851	309.193	-115.557	1523.967	108.159	-155.379	1441.051	37.695	-205.343	1631.017	32.912	-119.342	1740.622	53.431	-217.854	1780.478	863.545	-405.023	1833.922	744.260	-397.072	1694.728	833.854	-461.702	1732.842	703.565	-442.073	1799.983	575.129	-409.164	1800.024	458.215	-398.591	1714.858	503.495	-410.681	1663.859	400.196	-395.930	1637.163	184.997	-366.774	1537.515	143.179	-306.424	1702.507	75.182	-410.289	1816.904	61.855	-331.880
182	1.81000	1633.881	1529.108	-58.550	1614.289	1547.388	-400.241	1686.458	1492.432	-208.036	1684.417	1494.543	-258.907	1681.898	1271.764	18.270	1641.968	1179.678	56.961	1753.953	1078.253	60.863	1823.560	976.528	61.354	1596.566	1325.859	-495.439	1558.701	1207.771	-523.006	1631.953	1086.851	-548.817	1680.385	982.707	-552.260	1720.217	1022.497	-117.224	1697.628	1034.900	-368.312	1503.442	1024.313	-187.006	1489.205	998.584	-229.745	1495.620	1019.851	-278.246	1685.613	780.352	-61.778	1577.424	770.164	-43.384	1573.711	645.732	-83.867	1611.745	517.110	-116.624	1613.555	418.752	-116.644	1592.475	307.221	-118.796	1530.262	427.791	-107.243	1507.936	309.777	-115.688	1524.342	108.447	-155.599	1441.034	38.066	-205.413	1631.050	32.873	-119.349	1740.938	53.105	-217.758	1793.278	864.102	-402.985	1847.494	745.312	-394.590	1708.606	834.116	-461.430	1747.561	704.043	-441.602	1814.209	575.550	-407.315	1821.134	457.998	-398.139	1731.932	498.850	-410.224	1687.725	391.930	-395.964	1673.943	175.344	-367.579	1577.747	126.373	-307.057	1745.629	70.676	-412.670	1860.977	63.989	-335.133
183	1.82000	1646.946	1528.236	-58.923	1625.849	1545.997	-400.520	1698.867	1491.369	-208.413	1696.412	1493.176	-259.388	1696.168	1271.585	18.754	1658.051	1179.062	57.637	1770.529	1079.541	60.944	1842.050	979.307	60.815	1605.871	1325.073	-495.770	1566.645	1207.178	-523.264	1639.015	1086.169	-549.996	1687.029	981.684	-554.081	1731.361	1020.943	-116.700	1709.879	1034.074	-368.316	1514.157	1023.220	-188.400	1500.374	997.479	-231.208	1507.312	1018.747	-279.604	1693.080	779.177	-61.574	1584.833	770.704	-43.220	1579.409	646.238	-83.683	1615.313	517.060	-116.245	1615.692	418.577	-116.121	1593.529	307.259	-118.577	1531.640	428.414	-107.420	1509.199	310.562	-116.084	1524.579	108.796	-155.874	1441.081	38.390	-205.601	1631.141	32.875	-119.359	1741.079	53.033	-217.544	1805.988	863.850	-401.320	1860.492	745.308	-392.208	1722.475	833.890	-460.997	1761.327	703.770	-440.889	1828.026	575.304	-405.650	1839.978	458.167	-396.894	1749.221	493.142	-409.395	1711.113	384.076	-396.183	1710.815	166.236	-368.819	1618.404	110.681	-307.917	1788.824	66.949	-415.020	1905.645	67.754	-338.133
184	1.83000	1660.140	1527.127	-59.306	1638.019	1544.488	-400.928	1710.872	1489.745	-208.892	1708.908	1491.858	-259.748	1710.381	1271.067	18.936	1672.693	1178.419	58.578	1786.900	1080.819	60.743	1860.095	981.844	60.138	1615.209	1323.811	-496.147	1574.793	1206.284	-523.564	1646.337	1084.923	-551.094	1693.060	979.913	-556.878	1742.262	1019.381	-116.337	1721.711	1032.836	-367.941	1525.601	1021.858	-189.819	1511.899	996.430	-232.590	1518.723	1017.523	-280.956	1700.655	777.980	-61.474	1592.961	769.883	-44.103	1584.518	646.796	-83.683	1618.260	516.453	-115.942	1617.375	418.344	-115.914	1594.611	307.183	-118.423	1534.368	429.016	-107.807	1510.481	311.222	-116.714	1525.046	109.218	-156.305	1441.120	38.825	-205.781	1631.109	32.819	-119.368	1741.481	52.635	-217.548	1818.072	862.156	-399.951	1873.231	744.401	-389.604	1735.877	832.860	-460.577	1774.583	702.721	-440.015	1840.496	574.002	-403.746	1858.624	458.013	-395.796	1765.575	487.209	-408.690	1734.081	376.001	-396.126	1748.226	157.864	-370.198	1659.856	95.473	-309.431	1832.532	64.408	-417.529	1949.292	72.690	-340.958
185	1.84000	1673.030	1525.711	-59.708	1649.495	1542.595	-401.321	1723.357	1488.263	-209.399	1720.626	1489.953	-260.371	1724.171	1270.166	19.073	1687.504	1177.466	59.373	1803.385	1081.860	60.487	1878.252	984.184	59.248	1624.919	1322.438	-496.443	1583.471	1205.336	-523.819	1653.768	1083.422	-552.072	1700.016	978.133	-558.510	1753.064	1017.666	-115.805	1734.196	1031.314	-367.544	1537.494	1020.433	-191.036	1524.161	994.574	-234.012	1530.599	1015.893	-282.278	1707.421	776.490	-61.228	1599.935	770.399	-44.173	1590.214	647.230	-83.738	1621.362	516.181	-115.618	1619.916	418.376	-115.490	1596.099	307.227	-118.339	1536.275	429.438	-108.344	1511.546	312.275	-117.419	1525.185	109.517	-156.757	1441.079	39.215	-205.956	1631.100	32.746	-119.363	1741.660	52.452	-217.537	1831.484	860.745	-399.059	1884.909	742.604	-387.007	1749.519	831.194	-460.216	1787.227	700.985	-438.767	1852.975	572.294	-401.899	1876.643	457.935	-394.751	1781.832	480.908	-407.847	1758.484	367.179	-395.883	1786.025	150.467	-371.833	1701.750	81.614	-311.276	1876.419	63.278	-419.875	1992.651	79.193	-343.477
186	1.85000	1686.030	1524.097	-60.228	1661.612	1540.578	-401.779	1735.674	1486.380	-210.023	1733.232	1488.022	-260.946	1738.261	1269.217	19.080	1702.201	1176.352	60.061	1819.614	1082.258	60.199	1896.142	986.360	58.128	1635.123	1320.842	-496.714	1591.947	1204.041	-523.978	1661.753	1081.887	-552.966	1706.958	976.274	-560.011	1764.588	1016.069	-115.352	1746.075	1029.502	-367.330	1548.682	1019.333	-192.447	1534.618	994.352	-235.998	1542.660	1014.086	-283.523	1715.292	775.293	-61.214	1607.265	770.445	-44.348	1595.923	647.709	-83.969	1624.966	516.003	-115.306	1622.201	418.044	-115.464	1597.084	307.222	-118.253	1538.765	430.133	-108.738	1513.202	312.952	-118.114	1525.311	110.082	-157.245	1441.264	39.482	-206.067	1631.099	32.690	-119.378	1741.815	52.212	-217.511	1843.813	858.222	-397.978	1897.321	739.596	-386.159	1762.421	828.742	-459.815	1799.410	698.368	-437.406	1864.529	569.846	-400.148	1893.314	457.310	-393.599	1797.718	474.412	-407.029	1781.528	359.194	-396.170	1823.929	144.221	-373.566	1744.923	69.354	-313.525	1920.393	63.760	-421.848	2034.937	87.242	-345.414
